# xmcd CD database file
#
# Track frame offsets:
#	150
#	19830
#	34668
#
# Disc length: 663 seconds
#
# Revision: 0
# Processed by: cddbd v1.5PL3 Copyright (c) Steve Scherf et al.
# Submitted via: CDex 1.51
#
DISCID=1a029503
DTITLE=RAG FAIR - 白い天使が降りてくる
DYEAR=2003
DGENRE=Acapella
TTITLE0=白い天使が降りてくる
TTITLE1=ヨーヨー･マン 〜気づけばそこに雪が降る〜
TTITLE2=X'masマジック 〜12月の予感〜
EXTD=YEAR: 2003
EXTT0=
EXTT1=
EXTT2=
PLAYORDER=
